<?xml version="1.0" encoding="UTF-8"?>
<svg id="Layer_2" data-name="Layer 2" xmlns="http://www.w3.org/2000/svg" viewBox="0 0 649.44 574.95">
  <defs>
    <style>
      .cls-1 {
        fill: #818181;
      }

      .cls-2 {
        fill: #ff6701;
      }

      .cls-3 {
        fill: red;
      }
    </style>
  </defs>
  <g id="Layer_1-2" data-name="Layer 1">
    <g>
      <path class="cls-1" d="m171.26,387.31c1.23.34,1.79,1.28,2.51,2,9.87,9.76,20.61,18.41,32.57,25.5,15.03,8.91,31.14,14.86,48.43,17.45,11.09,1.66,22.21,1.81,33.41.74,20.69-1.98,40.09-8,58.32-17.89,12.2-6.62,23.38-14.72,33.9-23.75,9.46-8.13,18.25-16.97,27.03-25.8,4.31-4.33,8.55-8.74,13.26-12.64,1.98-1.64,4.03-3.19,6.33-4.39,1.07-.56,2.18-1.04,3.35-1.34,4.85-1.25,8.68.79,10.25,5.53,1.45,4.39.66,8.59-1.38,12.59-1.87,3.66-4.3,6.98-6.85,10.19-5.75,7.24-11.59,14.4-17.33,21.64-3.21,4.04-6.02,8.35-7.86,13.21-.6,1.58-1.09,3.2-1.32,4.87-.68,4.99,2.05,7.41,6.87,6.01,8.58-2.48,16.41-6.52,23.66-11.69,11.51-8.2,21.06-18.37,29.35-29.74,14.14-19.41,24.51-40.69,31.21-63.75,1.25-4.31,3.24-8.23,6.6-11.31,2.13-1.95,4.52-3.31,7.55-3.24,2.29.06,4.01,1.08,5.23,2.94,1.12,1.72,1.65,3.63,1.78,5.68.29,4.37-.43,8.66-1.12,12.94-3.08,19.1-9,37.29-17.93,54.45-13.53,26-32.32,47.47-56.14,64.51-20.79,14.87-43.68,25.1-68.62,30.67-18.95,4.24-38.15,5.54-57.49,3.91-26.17-2.21-50.97-9.34-74.19-21.65-29.25-15.51-52.82-37.2-70.43-65.29-.41-.65-1.04-1.24-.94-2.39Z"/>
      <path class="cls-2" d="m314.48,413.59c-4.28-3.15-8.2-6.73-12.13-10.29-24.29-22-44.61-47.12-59.95-76.16-2.78-5.26-5.38-10.6-7.78-16.04-1.09-2.48-.97-2.1-3.1-1.1-20.15,9.53-39.61,20.3-58.34,32.38-5.2,3.35-10.3,6.86-15.45,10.3-.66.44-1.34.86-2,1.29-.66-.46-.75-1.11-.94-1.69-7.28-21.55-10.72-43.69-9.26-66.42,3.51-54.84,27.24-99.18,69.96-133.49,1.69-1.36,2.56-2.81,2.97-4.89,6.71-33.52,18.55-65.08,36.08-94.47.37-.61.62-1.31,1.54-1.89-1.55,5.1-3,9.98-4.52,14.83-5.14,16.31-10.34,32.61-14.52,49.2-2.69,10.67-5.12,21.41-6.73,32.3-.8,5.4-1.22,10.86-1.6,16.31-.78,11.15-1.23,22.32-1.02,33.5.3,16.33,1.6,32.57,4.21,48.71,3.7,22.91,9.81,45.14,19.16,66.4,10.34,23.53,22.83,45.88,37.56,66.96,7.55,10.81,15.45,21.37,23.78,31.59.71.87,1.38,1.77,2.07,2.66v.03Z"/>
      <path class="cls-1" d="m608.32,289.52c-7.72-.46-15.1-.96-22.48-1.32-8.03-.39-16.05-.9-24.09-1.09-14.55-.34-29.1-.64-43.65-.35-15.67.31-31.34.81-46.98,2.04-8.81.69-17.63,1.34-26.41,2.3-11.97,1.31-23.91,2.85-35.82,4.72-21.19,3.32-42.19,7.59-62.99,12.82-25.57,6.43-50.68,14.35-75.41,23.5-.38.14-.76.27-1.12.44-.63.3-1.07.17-1.35-.49-.19-.44-.43-.86-.64-1.3-2.87-6.02-5.74-12.04-8.61-18.06-.24-.5-.57-.97-.57-1.59.61-.69,1.51-.87,2.31-1.19,28.07-11.51,56.85-20.82,86.38-27.79,15.63-3.69,31.39-6.72,47.29-9.07,10.09-1.49,20.21-2.77,30.37-3.64,22.21-1.91,44.44-2.64,66.73-1.64,9.4.42,18.77,1.11,28.13,2.08,14.63,1.51,29.15,3.77,43.53,6.83,14.69,3.12,29.17,7,43.4,11.84.59.2,1.22.3,1.99.96Z"/>
      <path class="cls-2" d="m388.88,209.68c14.5-5.22,24.89-14.81,30.22-29.34,7.06-19.21.89-39.88-14.71-52.74-.8-.66-1.63-1.31-2.43-1.95,0-.17.01-.35.02-.53,38.94,15.34,69.48,40.74,91.9,76.36-2.84.94-5.47,1.12-8.02,1.69-6.54,1.44-13.21,2.19-19.8,3.32-6.46,1.11-13.02,1.71-19.54,2.41-15.35,1.65-30.75,2.47-46.19,1.96-3.76-.13-7.54-.14-11.26-.84.07-.16.01-.27-.17-.33Z"/>
      <path class="cls-2" d="m335.36,195.95c-1.13-.02-1.83-.59-2.57-.98-17.26-9.04-31-21.94-41.8-38.08-7.01-10.47-12.41-21.75-16.87-33.51-.7-1.85-.69-1.88,1.17-2.46,9.06-2.83,18.28-4.99,27.66-6.42,12.83-1.95,25.72-2.78,38.7-2.07,7.38.4,14.73.91,22,2.41,1.46.3,3.01.4,4.51.64.6.1,1.3.06,1.69.75-19.37,2.06-34.28,11-42.28,29.08-8.03,18.15-4.63,35.11,7.8,50.63Z"/>
      <path class="cls-2" d="m420.88,260.7c.48-1.18,1.22-1.68,1.83-2.26,7.42-7.04,15.47-13.3,23.74-19.28,20.02-14.45,41.04-27.32,62.81-38.95.55-.29,1.04-.75,2.04-.68-.83.84-1.52,1.54-2.21,2.23-2.34,2.32-4.58,4.74-6.29,7.59-1.58,2.65-1.87,5.15-.38,8.16,6.5,13.16,11.05,27.01,14.04,41.38.14.69.36,1.38.05,2.38-31.75-2.57-63.55-2.93-95.63-.57Z"/>
      <path class="cls-1" d="m90.41,422.29c1.16-1.31,2.3-2.65,3.49-3.93,19.67-21.06,41.59-39.46,65.36-55.71,21.46-14.68,44.02-27.45,67.5-38.61.36-.17.74-.32,1.09-.52.91-.5,1.46-.2,1.92.68,1.24,2.34,2.55,4.64,3.83,6.97,2.2,4.01,4.39,8.01,6.72,12.27-52.36,21.91-101.35,49.81-149.47,79.37-.15-.17-.29-.35-.44-.52Z"/>
      <path class="cls-2" d="m322.91,492.66H3.82c-.64,0-1.29.01-1.93,0-1.74-.04-1.82-.18-1.79-1.97.02-.98.3-1.53,1.38-1.44.56.05,1.12,0,1.69,0,213.29,0,426.58,0,639.88,0,.32,0,.64,0,.96,0,2.02.03,2.09.16,1.99,2.22-.05.98-.48,1.24-1.34,1.19-.72-.04-1.45,0-2.17,0-106.53,0-213.05,0-319.58,0Z"/>
      <path class="cls-1" d="m419.19,413.56c2.11-2.41,4.27-4.78,6.31-7.25,7.8-9.47,14.18-19.88,20.09-30.58,5.44-9.84,10.69-19.79,16.06-29.67,1.46-2.68,2.97-5.33,4.87-7.75,1.1-1.4,2.3-2.69,3.78-3.69,3.58-2.41,6.97-1.48,8.63,2.48,1.7,4.05,1.42,8.16.04,12.25-.68,1.99-1.79,3.77-2.82,5.59-8.74,15.36-18.8,29.75-31.37,42.26-5.03,5-10.51,9.46-16.72,12.96-2.32,1.3-4.74,2.37-7.25,3.23-.53.18-1.08.34-1.65.14,0,0,.04.03.04.03Z"/>
      <path class="cls-3" d="m295.23,51.8c-2.51-.77-4.83-2.01-7.22-3.06-2.55-1.11-5.06-2.3-7.59-3.46-3.31-1.51-6.63-3.02-9.94-4.52-.72-.33-1.45-.61-2.45-1.03-.95,9.7-1.88,19.24-2.82,28.77-.12-.1-.26-.13-.41-.12-.9-9.43-1.8-18.86-2.73-28.65-9.43,4.23-18.72,8.39-28.01,12.56-.05-.09-.1-.19-.15-.28,8.28-5.66,16.55-11.33,25.19-17.23-8.52-5.87-16.8-11.58-25.08-17.28l.15-.28c9.12,4.13,18.25,8.26,27.76,12.57,1.17-10.09,1.83-19.97,3.21-29.79.35,3.52.72,7.03,1.04,10.55.53,5.76,1.03,11.53,1.54,17.29.16,1.77.36,1.89,2.05,1.13,5.47-2.47,10.93-4.97,16.4-7.44,2.92-1.32,5.85-2.62,8.77-3.92-.04.19.04.3.23.34-3.08,2.44-6.44,4.5-9.66,6.73-4.74,3.29-9.52,6.52-14.38,9.84.39.83,1.16,1.12,1.78,1.54,6.8,4.69,13.62,9.36,20.41,14.06.69.48,1.62.74,1.93,1.67v.02Z"/>
      <path class="cls-1" d="m470.29,520.81c-.48,2.86-.96,5.7-1.44,8.53-.44,2.61-.85,5.23-1.33,7.83-.31,1.71-.36,1.71-2.15,1.74-1.13.02-2.25.02-3.38,0-1.6-.04-1.64-.06-1.4-1.6.66-4.2,1.34-8.4,2.03-12.6.88-5.38,1.77-10.77,2.69-16.15.33-1.91.41-1.71,2.23-1.97,3.3-.47,5.23.55,6.47,3.89,1.67,4.49,3.98,8.75,6.26,13.64.59-3.48,1.11-6.47,1.61-9.46.35-2.14.73-4.27,1-6.42.15-1.19.66-1.69,1.87-1.62,1.28.08,2.57-.01,3.86.03,1.42.05,1.54.18,1.32,1.56-.46,2.93-.95,5.86-1.43,8.79-1.1,6.65-2.2,13.3-3.29,19.95-.32,1.93-.31,1.99-2.25,1.96-4.82-.09-3.56.84-5.62-3.53-2.12-4.51-4.13-9.06-6.2-13.59-.16-.35-.26-.77-.86-.97Z"/>
      <path class="cls-1" d="m633.24,524.17c.92-5.6,1.75-10.59,2.56-15.57.31-1.92.3-1.93,2.25-1.96,1.13-.02,2.25-.03,3.38,0,1.58.05,1.67.15,1.42,1.68-.62,3.88-1.26,7.76-1.9,11.64-.93,5.62-1.86,11.24-2.78,16.87-.34,2.06-.32,2.11-2.38,2.08-4.72-.08-3.47.77-5.44-3.43-2.16-4.58-4.2-9.21-6.3-13.81-.13-.28-.29-.54-.61-1.15-.78,2.2-.81,4.19-1.16,6.09-.66,3.55-1.29,7.11-1.78,10.69-.19,1.38-.81,1.7-2.05,1.64-1.59-.08-3.19-.02-4.64-.02-.66-.65-.32-1.21-.24-1.72,1.52-9.43,3.05-18.86,4.61-28.28.38-2.28.46-2.05,2.68-2.34,3.2-.41,4.88.69,6.05,3.79,1.72,4.55,4.05,8.87,6.35,13.8Z"/>
      <path class="cls-1" d="m177.45,520.81c-.48,2.86-.96,5.69-1.44,8.53-.45,2.69-.99,5.37-1.33,8.08-.16,1.29-.77,1.58-1.91,1.52-1.2-.06-2.41,0-3.62-.02-1.61-.03-1.65-.06-1.41-1.6.66-4.2,1.34-8.4,2.03-12.6.88-5.38,1.77-10.77,2.69-16.15.33-1.91.41-1.72,2.23-1.97,3.3-.47,5.23.54,6.47,3.88,1.66,4.5,3.98,8.75,6.13,13.35.82-2.1.86-4.13,1.22-6.09.59-3.15,1.07-6.33,1.52-9.51.17-1.18.66-1.69,1.87-1.62,1.28.08,2.57-.01,3.86.03,1.43.05,1.54.18,1.33,1.55-.46,2.93-.95,5.86-1.43,8.79-1.1,6.65-2.2,13.3-3.29,19.95-.32,1.93-.31,2-2.25,1.96-4.82-.09-3.56.84-5.62-3.53-2.12-4.51-4.13-9.06-6.2-13.59-.16-.35-.26-.77-.87-.97Z"/>
      <path class="cls-1" d="m21.53,523.89c.71-4.24,1.37-8.24,2.04-12.23.09-.55.18-1.11.28-1.66q.63-3.37,4.18-3.36c3.27,0,3.29,0,2.79,3.13-1.46,9.11-2.95,18.22-4.43,27.33-.29,1.78-.3,1.85-2.14,1.81-4.98-.1-3.62.88-5.77-3.67-2.13-4.5-4.13-9.06-6.2-13.59-.13-.28-.19-.63-.8-.82-.49,2.9-.97,5.78-1.45,8.66-.45,2.69-.95,5.38-1.35,8.07-.14.98-.52,1.4-1.54,1.37-1.76-.05-3.51-.02-5.38-.02-.22-1.86.34-3.46.6-5.08,1.31-8.24,2.66-16.48,4-24.72.08-.48.23-.94.28-1.42.08-.81.53-1.11,1.29-1.07.08,0,.16,0,.24,0q4.98-.32,7.11,4.23c1.9,4.07,3.77,8.17,5.66,12.24.09.2.27.36.58.78Z"/>
      <path class="cls-1" d="m612.17,520.16c.09,4.63-.85,8.74-3,12.53-2.55,4.5-6.42,6.83-11.66,6.73-3.29-.06-5.85-1.49-7.75-4.14-1.05-1.46-1.75-3.1-2.11-4.83-1.31-6.38-.52-12.49,2.86-18.11,2.45-4.08,6.1-6.24,10.97-6.24,4.35,0,7.3,2.13,9.15,5.9,1.3,2.65,1.68,5.51,1.54,8.16Zm-17.01,4.54c.03,1.52-.06,3.06.68,4.48,1.05,2.02,2.89,2.54,4.85,1.35.71-.43,1.26-1.01,1.64-1.73,1.83-3.55,2.47-7.27,1.6-11.2-.09-.39-.24-.77-.42-1.12-1.12-2.2-3.31-2.66-5.2-1.1-.96.79-1.58,1.81-2.01,2.96-.77,2.05-1.18,4.17-1.13,6.37Z"/>
      <path class="cls-1" d="m382.39,520.33c-.03,4.41-.96,8.62-3.17,12.46-2.52,4.39-6.32,6.69-11.47,6.64-3.71-.04-6.41-1.8-8.34-4.86-1-1.58-1.64-3.35-1.86-5.18-.64-5.34-.33-10.6,2.19-15.5,2.4-4.67,5.96-7.67,11.51-7.79,4.66-.09,7.79,2.12,9.65,6.24,1.14,2.52,1.53,5.22,1.48,7.99Zm-8.05.27c.05-1.21-.04-2.66-.66-4-1.07-2.29-3.45-2.8-5.38-1.18-.56.47-1,1.05-1.33,1.7-1.6,3.18-2.09,6.55-1.62,10.06.1.78.39,1.57.78,2.26.98,1.75,2.82,2.19,4.54,1.18,1.01-.59,1.66-1.5,2.16-2.53,1.09-2.29,1.51-4.73,1.52-7.49Z"/>
      <path class="cls-1" d="m220.18,515.73c-1.34-.58-2.61-1.26-4.03-1.58-4.02-.92-7.64.86-9.27,4.63-1.23,2.83-1.33,5.79-.85,8.75.43,2.61,2.35,4.24,4.54,4.18.91-.02,1.58-.27,1.65-1.32.01-.16.03-.32.06-.48.73-3.4.62-3.17-2.32-3.13-1.64.02-1.72-.12-1.48-1.63.24-1.5.59-2.99.77-4.5.12-1.03.6-1.34,1.57-1.33,3.45.03,6.89.01,10.28.01.63.67.28,1.34.19,1.91-.76,4.75-1.59,9.49-2.33,14.24-.14.89-.5,1.49-1.28,1.88-3.46,1.76-7.07,2.52-10.95,1.78-3.52-.67-5.93-2.74-7.43-5.89-3.17-6.63-1.62-17.06,3.41-22.43,4.04-4.31,9.18-5.39,14.8-4.45,4.55.77,4.57.89,3.63,5.34-.28,1.31-.15,2.74-.97,4Z"/>
      <path class="cls-1" d="m431.49,515.89c-1.63-.81-2.99-1.47-4.49-1.78-3.63-.75-7.08.74-8.72,4.03-1.59,3.2-1.96,6.6-1.01,10.08.57,2.05,2.01,3.28,3.88,3.47,1.43.14,1.92-.18,2.22-1.56.1-.47.13-.96.15-1.44.07-1.83.06-1.83-1.75-1.89q-2.48-.08-2.08-2.52c.18-1.11.37-2.22.54-3.33.16-1.09.6-1.68,1.88-1.65,3.05.09,6.11.05,9.16.02,1.1-.01,1.4.43,1.22,1.47-.83,4.83-1.64,9.66-2.42,14.49-.18,1.14-.76,1.82-1.8,2.33-3.05,1.49-6.24,2.15-9.59,1.73-4.2-.53-7.27-2.83-8.57-6.83-2.25-6.9-1.79-13.68,2.28-19.87,4.49-6.84,12.84-7.73,19.36-5.41,1,.36,1.07,1.06.92,1.92-.38,2.13-.75,4.26-1.19,6.74Z"/>
      <path class="cls-1" d="m400.4,524.69c1.87,1.48,2.73,3.26,3.08,5.3.42,2.45.8,4.91,1.23,7.36.2,1.14-.2,1.63-1.39,1.59-1.69-.06-3.38-.05-5.06,0-.9.02-1.31-.34-1.42-1.23-.24-1.99-.55-3.98-.79-5.97-.15-1.22-.47-2.36-1.24-3.34-.38-.47-.9-.74-1.48-.66-.75.1-.66.79-.75,1.33-.47,2.77-1.01,5.53-1.37,8.31-.16,1.26-.71,1.62-1.87,1.56-1.36-.07-2.73,0-4.1-.02-1.81-.04-1.86-.11-1.55-2,.61-3.72,1.22-7.45,1.84-11.17.94-5.7,1.88-11.4,2.82-17.11.33-1.98.32-2,2.46-2.01,2.57-.01,5.15-.02,7.72,0,4.6.05,7.78,2.06,8.45,5.67.82,4.45.07,8.63-4.39,11.31-.61.37-1.29.64-2.17,1.07Zm-4.81-4c1.42.06,2.53-.63,3.21-1.96.75-1.47.7-2.96-.2-4.36-.66-1.03-1.73-1.08-2.8-.95-1.03.13-.83,1.07-.98,1.7-.31,1.33-.54,2.68-.71,4.03-.18,1.4-.01,1.55,1.47,1.54Z"/>
      <path class="cls-1" d="m74.3,524.68c2.34,1.85,3.01,4.34,3.35,7.01.24,1.91.62,3.8.93,5.7.16.95-.04,1.56-1.2,1.53-1.77-.05-3.54-.04-5.3,0-.93.02-1.27-.43-1.37-1.27-.25-1.99-.55-3.98-.79-5.97-.14-1.14-.45-2.2-1.12-3.14-.4-.56-.97-.92-1.65-.8-.72.12-.62.83-.71,1.37-.47,2.77-.99,5.53-1.37,8.31-.15,1.09-.54,1.56-1.67,1.51-1.44-.06-2.89,0-4.34-.02-1.7-.03-1.8-.15-1.54-1.81.61-3.8,1.25-7.6,1.88-11.41.94-5.7,1.88-11.4,2.82-17.11.32-1.92.31-1.94,2.26-1.96,2.65-.02,5.31-.03,7.96,0,4.47.05,7.63,1.98,8.36,5.48.91,4.4.19,8.81-4.39,11.52-.62.36-1.28.64-2.1,1.04Zm-1.12-8.11c-.02-.81-.24-1.75-.94-2.49-.93-.98-3.04-1-3.29,0-.45,1.87-.71,3.78-1.01,5.68-.09.58.23.83.82.92,2.4.35,4.4-1.41,4.41-4.12Z"/>
      <path class="cls-1" d="m147.72,524.8c2.09,1.55,2.8,3.82,3.17,6.26.31,2.06.72,4.11.98,6.18.2,1.55.09,1.64-1.48,1.67-1.61.04-3.22-.03-4.82.02-1,.03-1.45-.37-1.56-1.35-.22-1.99-.53-3.98-.78-5.97-.16-1.22-.48-2.37-1.32-3.3-.39-.44-.92-.69-1.51-.54-.59.15-.54.72-.62,1.18-.47,2.77-1.03,5.53-1.36,8.31-.17,1.38-.75,1.75-2.02,1.68-1.28-.08-2.57,0-3.86-.02-1.91-.03-1.98-.1-1.69-1.88.77-4.75,1.56-9.5,2.34-14.26.77-4.67,1.55-9.34,2.32-14.02.34-2.09.33-2.11,2.36-2.12,2.97,0,5.95-.08,8.92.05,3.08.14,5.61,1.4,6.95,4.37,2.1,4.63,0,10.55-4.52,12.85-.5.25-1.07.36-1.52.89Zm-1.22-8.34c-.04-.74-.26-1.57-.83-2.28-.69-.86-1.66-.86-2.62-.77-1.03.1-.86,1.02-1,1.65-.31,1.47-.53,2.97-.77,4.45-.13.79.18,1.13,1.02,1.19,2.43.16,4.26-1.59,4.2-4.24Z"/>
      <path class="cls-1" d="m318.38,524.71c1.94,1.46,2.77,3.35,3.14,5.46.4,2.29.8,4.59,1.12,6.89.24,1.74.14,1.81-1.53,1.85-1.45.03-2.89.03-4.34,0-1.75-.03-1.79-.04-2.07-1.87-.28-1.82-.47-3.66-.69-5.5-.14-1.14-.46-2.2-1.19-3.11-.42-.52-.99-.87-1.68-.65-.57.18-.49.76-.57,1.22-.47,2.77-1.01,5.53-1.37,8.31-.16,1.21-.61,1.68-1.82,1.61-1.44-.08-2.89.01-4.34-.03-1.56-.04-1.66-.15-1.41-1.7.78-4.83,1.59-9.66,2.38-14.49.77-4.67,1.55-9.34,2.31-14.02.33-2.03.32-2.05,2.41-2.06,2.97,0,5.95-.07,8.92.05,3.57.14,6.34,2.05,7.14,5.11,1.23,4.65.11,10-5.27,12.32-.29.13-.57.29-1.14.59Zm-3.86-11.32c-.5.06-1.3-.22-1.47.69-.37,1.89-.68,3.79-.99,5.69-.09.58.23.84.82.92,1.63.22,3.1-.46,3.88-1.86.79-1.43.69-3.43-.23-4.57-.49-.61-1.12-.89-2-.87Z"/>
      <path class="cls-1" d="m39.66,506.64c.72,0,1.45-.02,2.17,0,1.53.06,1.64.18,1.38,1.73-.84,5.07-1.71,10.13-2.58,15.19-.25,1.43-.39,2.87-.28,4.32.15,1.88.94,2.91,2.38,3.2,1.33.27,2.65-.5,3.45-2.08.92-1.82,1.11-3.85,1.45-5.82.86-4.98,1.69-9.97,2.45-14.97.18-1.21.65-1.66,1.85-1.6,1.52.08,3.05.06,4.58,0,1.12-.04,1.41.48,1.22,1.47-1.35,7.09-2.09,14.3-3.76,21.34-.15.62-.33,1.24-.53,1.85-2.07,6.1-6.45,8.86-12.8,8.08-4.47-.55-7.47-4.1-7.88-9.27-.22-2.75.15-5.46.57-8.16.7-4.52,1.51-9.02,2.26-13.54q.29-1.73,2.12-1.77c.64-.01,1.29,0,1.93,0Z"/>
      <path class="cls-1" d="m113.03,506.63c1.04.22,2.65-.62,3.44.45.68.92-.16,2.32-.34,3.5-.67,4.36-1.44,8.71-2.18,13.06-.24,1.43-.38,2.87-.25,4.32.16,1.85,1.01,2.89,2.46,3.13,1.25.21,2.51-.52,3.3-1.96.62-1.14.9-2.4,1.11-3.67.96-5.7,1.95-11.39,2.83-17.1.2-1.28.61-1.85,1.96-1.75,1.44.1,2.89,0,4.34.03,1.42.04,1.55.19,1.35,1.54-.27,1.83-.59,3.64-.92,5.46-.95,5.21-1.49,10.49-2.79,15.64-.18.7-.36,1.4-.59,2.08-2.07,6.05-6.56,8.83-12.86,7.99-4.45-.59-7.42-4.17-7.8-9.35-.2-2.75.17-5.46.59-8.15.68-4.36,1.47-8.71,2.2-13.06.36-2.15.35-2.15,2.5-2.17.48,0,.96,0,1.64,0Z"/>
      <path class="cls-1" d="m431.67,538.92c1-2.39,1.85-4.44,2.73-6.49,3.45-8.03,6.93-16.05,10.34-24.1.5-1.18,1.06-1.81,2.45-1.73,2,.12,4.01.08,6.02.01,1.19-.04,1.68.33,1.78,1.59.36,4.56.94,9.09,1.23,13.65.3,4.73.89,9.42,1.26,14.14.04.48.08.96.15,1.44.15.99-.16,1.56-1.26,1.48-.48-.03-.96.02-1.44,0-1.51-.09-3.31.58-4.46-.29-1.14-.86-.44-2.7-.6-4.1-.14-1.16-.5-1.82-1.78-1.65-.24.03-.48,0-.72,0-1.67.09-3.6-.58-4.96.3-1.26.82-1.39,2.77-1.93,4.26-.38,1.05-.89,1.56-2.08,1.51-2.13-.09-4.27-.03-6.73-.03Zm17.48-24.17c-.15-.04-.29-.08-.44-.12-1.06,2.91-2.14,5.82-3.16,8.74-.59,1.69-.44,1.86,1.44,1.88,2.11.03,2.16-.02,2.16-2.09,0-2.8,0-5.61,0-8.41Z"/>
      <path class="cls-1" d="m273.18,538.92c-.29-1.1.23-1.7.5-2.34,4-9.37,8.05-18.72,12.01-28.1.59-1.39,1.33-1.98,2.86-1.88,1.92.13,3.85.08,5.78.01,1.21-.05,1.69.36,1.79,1.61.63,8,1.33,15.99,2.01,23.98.15,1.76.28,3.52.49,5.27.12,1-.06,1.5-1.21,1.46-1.68-.07-3.37-.06-5.06,0-1.07.03-1.42-.49-1.43-1.45,0-.96-.04-1.93-.1-2.89-.11-1.66-.12-1.66-1.86-1.72-.16,0-.32,0-.48,0-1.68.07-3.58-.54-4.98.26-1.36.77-1.39,2.78-1.95,4.26-.44,1.15-1.06,1.61-2.3,1.55-2-.09-4-.02-6.07-.02Zm16.68-23.6c-.13,0-.26.01-.39.02-1.16,3.22-2.31,6.44-3.51,9.77,1.05.39,1.93.19,2.78.28,1.31.13,1.66-.49,1.57-1.71-.2-2.78-.3-5.57-.45-8.35Z"/>
      <path class="cls-1" d="m523.64,538.92c-.38-.91.02-1.38.23-1.88,4.1-9.59,8.24-19.16,12.31-28.76.51-1.2,1.13-1.76,2.49-1.68,2,.12,4.01.08,6.02.01,1.19-.04,1.71.32,1.81,1.59.63,8,1.33,15.99,2.01,23.98.16,1.84.29,3.68.51,5.51.12,1.01-.3,1.26-1.2,1.23-1.69-.04-3.37-.05-5.06,0-1.05.03-1.44-.44-1.45-1.43,0-1.12-.1-2.25-.11-3.37,0-.93-.47-1.3-1.35-1.26-.16,0-.32,0-.48,0-1.76.02-3.7-.41-5.25.19-1.7.65-1.55,2.98-2.27,4.54-.43.93-.88,1.38-1.95,1.34-2.13-.08-4.27-.02-6.27-.02Zm12.59-13.55c1.37,0,2.33,0,3.28,0,.77,0,1.23-.27,1.18-1.12-.15-2.97-.3-5.94-.45-8.91-.12,0-.23-.02-.35-.03-1.17,3.2-2.33,6.41-3.67,10.06Z"/>
      <path class="cls-2" d="m576.26,563.04h-69.66c-.56,0-1.13.01-1.69,0-1.54-.04-2.39-1.52-1.7-2.93.16-.32.44-.45.78-.46.64-.02,1.29-.02,1.93-.02,46.84,0,93.68,0,140.52,0,.32,0,.64,0,.96,0,1.75.04,2.41,1.08,1.83,2.8-.16.48-.5.58-.91.6-.64.02-1.29.01-1.93.01-23.38,0-46.76,0-70.14,0Z"/>
      <path class="cls-1" d="m515.64,514.26c-1.5,0-2.84,0-4.18,0-1.53,0-3.05-.01-4.58,0-.79,0-1.22-.25-1.06-1.14.31-1.74.59-3.48.89-5.22.14-.78.46-1.28,1.41-1.27,5.94.04,11.88.03,17.82.05.22,0,.44.15.72.26-.34,3.54-.89,6.85-3.38,9.75-3.34,3.89-6.28,8.12-9.38,12.22-.48.63-.92,1.29-1.39,1.95.57.67,1.25.39,1.83.4,2.33.04,4.66,0,6.98.03,1.63.02,1.71.1,1.54,1.61-.18,1.51-.54,3-.71,4.51-.14,1.23-.75,1.55-1.92,1.54-5.06-.05-10.11-.02-15.17-.02-.8,0-1.61-.04-2.41,0-1.11.07-1.66-.27-1.48-1.5.43-2.93.82-5.72,2.98-8.16,3.67-4.14,6.95-8.62,10.38-12.96.39-.49.92-.9,1.1-2.05Z"/>
      <path class="cls-2" d="m67.02,563.04H3.63c-.56,0-1.13.01-1.69,0-1.55-.04-2.41-1.56-1.68-2.95.17-.32.45-.42.78-.43.64-.02,1.28-.03,1.93-.03,42.66,0,85.33,0,127.99,0,.32,0,.64,0,.96,0q1.76.05,1.74,1.72c-.01,1.61-.02,1.63-1.56,1.68-.56.02-1.12,0-1.69,0h-63.39Z"/>
      <path class="cls-1" d="m251.68,515.5c-1.73-1.03-3.16-1.93-4.9-2.1-1.95-.2-3.09.2-3.56,1.31-.49,1.15-.08,2.32,1.34,3.55.73.63,1.51,1.19,2.3,1.76,4.09,2.96,5.09,7.04,4.12,11.74-.87,4.25-3.61,6.72-7.82,7.49-3.17.58-6.23.1-9.13-1.37-1.04-.53-1.6-1.07-1.26-2.42.49-1.92.52-3.95,1.16-6.07.98.62,1.81,1.2,2.69,1.68,1.21.66,2.49,1.14,3.89,1.13,1.1,0,2.14-.26,2.54-1.42.39-1.13.27-2.28-.64-3.13-.7-.65-1.54-1.15-2.34-1.68-5.33-3.48-6.74-10.23-3.26-15.62,1.49-2.3,3.61-3.67,6.27-4.07,2.99-.45,5.92-.09,8.74,1.11.83.35,1.33.67,1.08,1.75-.46,2.01-.5,4.11-1.23,6.37Z"/>
      <path class="cls-1" d="m327.03,529.53c.88.1,1.33.72,1.92,1.09,1.24.78,2.57,1.34,4.02,1.54,1.52.21,2.7-.29,3.15-1.23.55-1.16.16-2.71-1.01-3.66-.68-.55-1.43-1.04-2.19-1.49-6.73-3.96-5.51-12.9-2.09-16.66,1.47-1.61,3.3-2.59,5.43-2.88,3-.4,5.92-.05,8.74,1.15.88.37,1.23.75,1,1.79-.44,2.01-.69,4.06-1.05,6.27-1.2-.61-2.11-1.1-3.05-1.52-1.04-.47-2.15-.62-3.29-.59-1.06.03-1.92.4-2.3,1.42-.36.97-.17,1.9.54,2.69.81.9,1.78,1.62,2.78,2.3,4.92,3.36,5.6,8.32,4.13,13.22-.8,2.66-2.59,4.6-5.26,5.6-4.01,1.5-7.88,1.07-11.65-.86-.91-.46-1.28-1-1.01-2.1.49-2,.51-4.11,1.18-6.09Z"/>
      <path class="cls-1" d="m267.34,506.63c2.89,0,5.78-.02,8.67,0,1.98.02,2,.04,1.77,2.07-.15,1.27-.4,2.54-.56,3.81-.15,1.21-.65,1.86-2.02,1.76-1.36-.11-2.73,0-4.09-.03-.99-.03-1.39.37-1.55,1.37-.75,4.91-1.59,9.81-2.38,14.72-.37,2.29-.75,4.59-1.07,6.89-.17,1.23-.71,1.82-2.05,1.72-1.44-.11-2.89-.09-4.33,0-1.28.08-1.47-.44-1.27-1.57.63-3.55,1.16-7.12,1.74-10.68.55-3.4,1.16-6.8,1.67-10.21.33-2.17.27-2.19-1.84-2.22-1.2-.02-2.41-.02-3.61,0-1.06.02-1.14-.55-.98-1.41.29-1.58.54-3.16.75-4.75.14-1.06.63-1.5,1.75-1.48,3.13.06,6.26.02,9.39.02Z"/>
      <path class="cls-1" d="m559.95,538.92c-3.83,0-3.85,0-3.23-3.83,1.02-6.25,2.06-12.49,3.1-18.73.35-2.07.36-2.08-1.87-2.1-1.12-.01-2.25-.05-3.37,0-1.13.05-1.39-.52-1.21-1.49.28-1.58.6-3.15.81-4.74.12-.95.45-1.42,1.49-1.41,6.34.03,12.68.03,19.02,0,.94,0,1.33.33,1.17,1.29-.31,1.74-.61,3.47-.87,5.21-.11.77-.47,1.13-1.25,1.12-1.36-.01-2.73-.01-4.09,0-1.92.03-1.95.03-2.27,1.98-.86,5.22-1.69,10.44-2.53,15.66-.29,1.82-.7,3.63-.88,5.46-.12,1.25-.67,1.67-1.84,1.57-.72-.06-1.44-.01-2.17-.01Z"/>
      <path class="cls-1" d="m95.65,506.64c3.13,0,6.26-.02,9.39.01,1.46.02,1.56.16,1.35,1.51-.25,1.58-.6,3.15-.78,4.74-.12,1.01-.55,1.4-1.54,1.37-1.28-.05-2.57-.03-3.85,0-1.91.03-1.94.04-2.26,1.99-.53,3.16-1.02,6.33-1.54,9.49-.63,3.87-1.33,7.74-1.87,11.63-.17,1.25-.68,1.62-1.85,1.57-1.52-.07-3.05-.05-4.57,0-1.1.03-1.41-.45-1.23-1.47.54-3.08,1.03-6.17,1.55-9.25.69-4.11,1.39-8.21,2.07-12.32.24-1.45.11-1.58-1.5-1.62-1.28-.03-2.57-.05-3.85,0-1.14.04-1.38-.53-1.21-1.5.28-1.58.64-3.15.8-4.74.12-1.18.71-1.42,1.75-1.4,3.05.04,6.1.01,9.15.02Z"/>
      <path class="cls-3" d="m361.29,76.62c-6.48-2.44-12.66-5.49-19.22-8.25-.68,6.83-1.31,13.26-1.95,19.68-.14,0-.28-.01-.42-.02-.59-6.44-1.18-12.88-1.81-19.7-6.4,2.85-12.55,5.6-18.7,8.34-.06-.12-.13-.23-.19-.35,5.49-3.76,10.97-7.51,16.78-11.5-5.58-3.85-10.97-7.56-16.36-11.28.07-.14.14-.28.22-.42,5.94,2.67,11.88,5.34,18.17,8.17.64-6.71,1.26-13.21,1.88-19.71,1.36,6.31,1.43,12.75,2.35,19.38,3.42-.98,6.39-2.69,9.51-4.02,3.09-1.32,6.14-2.74,9.41-3.79-5.53,3.8-11.05,7.6-16.85,11.59,5.89,4.07,11.53,7.97,17.18,11.87Z"/>
      <path class="cls-1" d="m498.97,506.63c.64,0,1.28-.01,1.93,0,1.81.05,1.91.14,1.62,1.96-.62,3.88-1.27,7.75-1.91,11.63-.93,5.61-1.86,11.23-2.8,16.84-.3,1.81-.3,1.82-2.06,1.85-1.28.02-2.57.02-3.85,0-1.86-.04-1.93-.11-1.63-1.94.8-4.91,1.6-9.81,2.42-14.71.73-4.43,1.5-8.85,2.22-13.28.38-2.33.36-2.33,2.63-2.35.48,0,.96,0,1.45,0Z"/>
      <path class="cls-1" d="m577.36,538.92c-3.89,0-3.91,0-3.3-3.76,1.45-8.94,2.94-17.88,4.35-26.82.2-1.3.72-1.81,2.02-1.72,1.28.09,2.57,0,3.85.02,1.91.03,1.99.14,1.67,2.12-.29,1.82-.6,3.64-.9,5.46-1.24,7.43-2.47,14.87-3.71,22.3-.4,2.4-.41,2.39-2.78,2.4-.4,0-.8,0-1.2,0Z"/>
      <path class="cls-1" d="m158.95,538.92c-.64,0-1.28.01-1.93,0-1.8-.05-1.87-.13-1.57-1.99,1.56-9.49,3.13-18.98,4.69-28.47.29-1.77.29-1.78,2.14-1.81,1.36-.02,2.73.05,4.09-.02,1.2-.06,1.59.41,1.39,1.56-.36,2.05-.67,4.11-1.01,6.17-1.23,7.43-2.47,14.87-3.71,22.3q-.38,2.26-2.65,2.27c-.48,0-.96,0-1.45,0Z"/>
      <path class="cls-3" d="m181.54,565.65c-.48.21-.62.51-.61.84.03,1.24-.23,2.19-1.72,2.38-1.69.22-3.02-.27-3.79-1.49-.4-.64-.57-1.35-.52-2.07.12-1.81-.06-3.65.61-5.41.25-.66.32-1.41.42-2.12.49-3.43.32-2.74,3.63-2.86,1.15-.04,1.34.49,1.14,1.49-.39,1.97-.71,3.94-1.03,5.92-.12.74-.67,1.81.41,2.06,1.21.28,1.25-.85,1.36-1.75.13-1.11.29-2.22.74-3.27,1.19-2.83,3.15-4.66,6.36-4.62,1.16.01,1.48-.46,1.73-1.46.3-1.17.01-2.37.46-3.54.34-.87.67-1.37,1.65-1.27.56.06,1.12-.01,1.68.02,1.33.06,1.44.27,1.19,1.61-.62,3.4-1.16,6.83-1.84,10.22-.47,2.35-.52,4.73-.83,7.09-.1.78-.36,1.16-1.18,1.11-.72-.04-1.45-.05-2.17,0-1.01.08-1.19-.55-1.24-1.6-1.22,1.12-2.3,2.36-4.03,1.86-1.53-.45-2.03-1.81-2.45-3.16Zm7.31-7.34c-2.11.95-3.12,2.7-2.92,4.86.05.53.07,1.18.74,1.36.66.18,1.08-.27,1.33-.78.84-1.67,1.35-3.4.85-5.45Z"/>
      <path class="cls-1" d="m391.87,568.28c.4-2.37.82-4.63,1.13-6.91.11-.79.69-1.99-.48-2.27-.97-.23-1.42.9-1.72,1.72-.68,1.9-.74,3.93-1.1,5.9-.33,1.8-.3,1.81-2.09,1.85-1.59.03-3.16-.01-4.76.22-2.41.35-3.98-1.16-3.87-3.72.09-2.07.54-4.13.83-6.19.06-.4.17-.79.23-1.18q.48-2.87,3.3-2.73c1.52.08,1.58.14,1.32,1.75-.29,1.82-.6,3.64-.91,5.46-.04.24-.14.46-.17.7-.08.64-.22,1.4.62,1.59.98.22,1.48-.38,1.62-1.31.33-2.06.68-4.11.99-6.18.3-1.99.28-2.03,2.35-1.98.85.02,2.01-.51,2.32.98.07.32.5.31.8.09.19-.14.38-.29.58-.43,1.19-.8,2.45-1.37,3.8-.49,1.24.81,1.32,2.19,1.15,3.47-.4,2.94-.94,5.86-1.39,8.79-.12.8-.54,1.11-1.29,1.08-1.02-.04-2.07.12-3.27-.19Z"/>
      <path class="cls-3" d="m238.22,568.54c-1.12,0-2.25-.02-3.37,0-.8.02-1.18-.25-1.05-1.12.29-1.95.5-3.92.81-5.87.55-3.5,1.2-6.98,1.67-10.49.14-1,.47-1.49,1.43-1.49,2.08,0,4.18-.11,6.25.1,2.99.3,4.98,2.43,5.4,5.58.4,3.07.05,6.06-1.35,8.84-1.37,2.71-3.59,4.24-6.66,4.42-1.04.06-2.08,0-3.13,0,0,0,0,.01,0,.02Zm1.08-7.04c-.05.4-.05.8-.15,1.19-.27,1.1.22,1.4,1.25,1.36,1.72-.06,2.84-.97,3.54-2.43.83-1.71.82-3.56.54-5.39-.19-1.28-1.14-1.85-2.31-2.1-.98-.2-1.63,0-1.89,1.18-.45,2.05-.82,4.1-.98,6.19Z"/>
      <path class="cls-3" d="m207.07,556.72c.65-.47,1.26-.99,1.95-1.4,2.39-1.42,4.36-.42,4.56,2.32.05.63-.04,1.28-.14,1.91-.4,2.58-1.11,5.11-1.25,7.74-.05.89-.48,1.32-1.38,1.25-1.02-.07-2.07.18-3.07-.22-.17-2.46.58-4.74.95-7.07.1-.63.6-1.57-.3-1.89-1.13-.41-1.55.62-1.84,1.43-.29.82-.41,1.71-.58,2.58-.18.95-.27,1.91-.49,2.84-.55,2.34-.57,2.33-2.9,2.33-1.19,0-2.35.01-3.56.26-2.68.54-4.33-.91-4.36-3.68-.04-3.13.9-6.12,1.37-9.18.12-.8.61-.96,1.35-1.01,3.26-.23,3.31-.21,2.83,2.87-.23,1.51-.51,3-.74,4.51-.11.74-.65,1.63.36,2.12.69.34,1.53-.54,1.73-1.75.34-2.06.75-4.11.94-6.18.12-1.27.64-1.69,1.82-1.56.4.04.81.06,1.2,0,1.4-.2,1.65.58,1.52,1.71,0,0,.03.08.03.08Z"/>
      <path class="cls-3" d="m290.05,556.72c.39-.28.77-.56,1.16-.85,2.44-1.83,3.88-1.59,5.44.9.87-.12,1.23-.96,1.9-1.37,1.1-.68,2.26-.95,3.43-.42,1.18.53,1.42,1.7,1.38,2.85-.11,3.38-1.01,6.65-1.46,9.98-.08.61-.55.72-1.05.73-1.03,0-2.06,0-3.29,0-.06-2.34.46-4.48.78-6.64.11-.71.23-1.42.27-2.13.02-.28-.01-.65-.41-.77-.36-.11-.63.09-.86.29-.62.55-1.03,1.26-1.15,2.06-.26,1.81-.89,3.54-.97,5.39-.08,1.68-.2,1.77-1.83,1.78-.86,0-1.76.19-2.65-.21-.24-2.4.53-4.66.91-6.98.1-.65.79-1.71-.42-2-1.14-.27-1.54.78-1.73,1.6-.45,1.95-.81,3.92-1.07,5.91-.17,1.28-.67,1.88-2,1.7-.86-.12-1.76.18-2.77-.3.52-3.18,1.04-6.4,1.56-9.61.06-.4.18-.79.2-1.18.18-2.61-.22-2.45,3.09-2.55,1.41-.04,1.65.6,1.52,1.74,0,0,.03.08.03.08Z"/>
      <path class="cls-3" d="m160.03,555c-.45-.2-.73-.34-1.02-.45-2.69-1.02-4.74-.66-6.15,1.08-1.45,1.79-1.86,5.54-.81,7.32.34.57.78.99,1.45,1.18,1.09.3,1.53.05,1.83-1.13.1-.38.14-.76.21-1.09-.2-.17-.3-.3-.43-.36-.64-.27-1.8.23-1.92-.56-.17-1.13.15-2.34.34-3.5.06-.33.52-.32.84-.32,1.77-.01,3.53,0,5.3-.02.84-.01,1.17.35,1.01,1.17-.5,2.69-1.07,5.37-1.45,8.08-.12.89-.53,1.25-1.21,1.56-1.8.83-3.69,1.16-5.63.87-2.75-.41-4.48-2.11-5.24-4.71-1-3.46-.66-6.86,1.04-10.04,2.47-4.62,7.65-5.65,11.85-4.22.71.24,1.13.6.88,1.4-.35,1.14-.22,2.4-.88,3.74Z"/>
      <path class="cls-1" d="m399.08,570.12c4.1,1.43,5.51.93,6.02-2.11-.54-.3-.83.2-1.21.38-1.97.94-3.41.41-4.31-1.58-1.32-2.93-.26-8.14,2.12-10.33.78-.72,1.69-1.25,2.72-1.5,2.16-.52,4.31-.21,6.44.26.78.17,1.06.6.92,1.38-.69,3.87-1.34,7.75-2.06,11.61-.24,1.26-.68,2.47-1.4,3.57-1.76,2.67-6.13,3.93-9.04,2.62-.58-.26-.9-.6-.85-1.27.08-1.04.3-2.05.66-3.03Zm7.8-10.67c.09-.39.19-.81-.25-1.04-.37-.19-.79-.13-1.14.09-1.69,1.06-1.93,2.81-2.09,4.56-.06.62.1,1.33.89,1.49.76.15,1.14-.43,1.46-.99.73-1.27.83-2.72,1.13-4.11Z"/>
      <path class="cls-3" d="m220.5,568.32c-.5-.29-.75-.05-1.03.06-2.45.97-4.16.23-4.7-2.31-.67-3.09-.3-6.09,1.62-8.73,2.05-2.83,5.03-2.93,8.05-2.43.89.15,1.87.2,2.77.57.29,1.67-.5,3.16-.64,4.72-.16,1.78-.69,3.55-.83,5.36-.17,2.17-.9,4.2-1.88,6.1-.94,1.81-2.63,2.75-4.63,3.05-.79.12-1.6.15-2.4.11-2.76-.13-3.13-.58-2.73-3.25.07-.47.16-.94.27-1.57,1.72.41,3.34,1.54,5.04.4.75-.51,1.17-1.22,1.11-2.09Zm-1.55-5.72c.1.68-.22,1.71.82,1.91.96.18,1.32-.68,1.55-1.48.33-1.19.66-2.38.95-3.59.09-.37.18-.85-.25-1.05-.37-.17-.79-.03-1.13.2-1.39.94-1.71,2.41-1.93,4Zm1.8,5.04c-.05-.06-.1-.11-.15-.17-.05.06-.1.11-.15.17.08.06.15.11.23.17.03-.06.05-.11.08-.17Z"/>
      <path class="cls-3" d="m411.2,99.4c-3.85-1.7-7.71-3.4-11.81-5.21-.47,4.7-.91,9.13-1.35,13.55-.1.01-.19.02-.29.03-.43-4.43-.86-8.85-1.33-13.63-4.41,1.96-8.54,3.79-12.67,5.62-.06-.09-.11-.18-.17-.27,3.69-2.54,7.39-5.09,11.35-7.82-3.64-2.55-7.06-4.93-10.48-7.32,1.29-.17,2.25.44,3.23.92,2.31,1.11,4.74,1.94,6.92,3.31,1.13.71,1.78.28,1.93-1.18.32-3.03.6-6.07.89-9.11.09-1,.08-2.01.47-2.98.8,4.44.72,8.98,1.51,13.77,4.24-1.88,8.29-3.67,12.33-5.46.06.1.12.2.18.3-3.62,2.51-7.25,5.01-11.06,7.65,3.64,2.58,7.09,5.02,10.53,7.47-.19.04-.25.16-.21.34Z"/>
      <path class="cls-1" d="m371.37,556.76c.55-.44.73-.58.91-.73,2.7-2.26,5.11-1.49,5.72,1.95.49,2.76.05,5.46-1.5,7.85-1.25,1.94-3.06,3.06-5.42,3.01-1.08-.03-1.63.29-1.69,1.45-.06,1.03-.33,2.05-.49,3.08-.14.92-.57,1.46-1.6,1.36-.48-.05-.96,0-1.44,0-1.66-.06-1.67-.07-1.42-1.63.9-5.6,1.82-11.2,2.7-16.8.13-.84.39-1.35,1.33-1.31.64.03,1.28.04,1.92,0,1.06-.06,1.16.61,1,1.79Zm-.97,6.99c0,.6-.26,1.16.3,1.43.47.22.94-.04,1.33-.31,1.26-.87,2.16-3.79,1.62-5.21-.35-.92-1.21-1.07-1.84-.25-1,1.32-1.15,2.93-1.41,4.35Z"/>
      <path class="cls-1" d="m338.91,568.1c.07-3.18.92-6.29,1.33-9.46.35-2.7.88-5.38,1.33-8.07q.33-1.99,2.46-2c2.32,0,2.24-.02,1.97,2.18-.22,1.8-.89,3.56-.63,5.6.87-.51,1.58-1.02,2.37-1.35,1.88-.78,3.41.06,3.72,2.06.12.78.09,1.61-.03,2.39-.38,2.54-.91,5.05-1.24,7.6-.15,1.14-.65,1.54-1.72,1.44-.87-.08-1.76.15-2.77-.23.05-2.2.62-4.35.93-6.53.13-.89.76-2.22-.32-2.56-1.24-.39-1.68,1.02-1.92,1.99-.43,1.71-.69,3.46-.98,5.19-.36,2.16-.34,2.17-2.59,2.13-.63,0-1.29.09-1.91-.38Z"/>
      <path class="cls-1" d="m327.62,563.13c1.21.53,2.13,1.41,3.41,1.44.75.02,1.5,0,1.82-.82.28-.74.11-1.44-.52-1.95-.5-.4-1.06-.72-1.57-1.1-2.72-2.01-3.39-6.26-1.43-9.02.82-1.16,1.91-1.96,3.35-2.13.79-.09,1.6-.16,2.4-.12,3.85.23,4.49,1.37,2.82,5.09-.9-.31-1.79-.66-2.71-.91-.84-.24-1.62-.06-2.08.76-.44.8.04,1.39.58,1.89.47.44.96.85,1.5,1.21,3.04,2.03,3.01,5.41,2.24,7.71-.84,2.5-3.22,4.03-6.37,3.62-4.87-.63-4.76-.95-3.43-5.67Z"/>
      <path class="cls-3" d="m270.59,560.7c.8-.17.69-.94.91-1.45,1.28-2.96,3.44-4.56,6.72-4.52,1.45.02,2.88.07,4.3.46.91.24,1.09.67.96,1.56-.18,1.26-.56,2.48-.82,3.71-.48,2.27-.46,4.58-.79,6.86-.13.88-.37,1.32-1.32,1.24-.64-.06-1.29-.08-1.93,0-1.07.14-1.26-.59-1.38-1.36-.65.08-.83.61-1.21.88-2.05,1.49-4.13.87-4.93-1.56-.46-1.38-.62-2.82-.37-4.28.09-.52.42-1.09-.12-1.57l-.03.03Zm7.54-2.35c-2.14.85-3.23,2.79-2.93,4.99.06.45.1.99.66,1.17.66.21,1.1-.2,1.37-.7.89-1.66,1.36-3.4.91-5.46Z"/>
      <path class="cls-1" d="m455.2,554.98c.52,0,.92,0,1.32,0,.75-.02.99.34.86,1.05-.34,1.97-.72,3.95-.97,5.93-.1.8-.71,2.02.34,2.33,1.14.34,1.62-.94,1.84-1.81.48-1.86.76-3.77,1.1-5.66.32-1.81.3-1.81,2.06-1.85.16,0,.32,0,.48,0,2.15,0,2.14,0,1.85,2.07-.49,3.41-1.34,6.77-1.49,10.23-.04.95-.51,1.36-1.36,1.19-1.08-.22-2.45.73-3.23-.79-.17-.33-.53-.28-.83-.09-.2.13-.4.27-.6.4-1.2.76-2.46,1.34-3.81.46-1.24-.81-1.36-2.16-1.18-3.46.41-3.02.93-6.02,1.42-9.03.25-1.52,1.49-.78,2.21-.98Z"/>
      <path class="cls-1" d="m435.24,554.98c-.17,2.54-.68,4.72-1.02,6.94-.12.8-.64,1.79.28,2.42.56.38,1.6-.59,1.96-2.04.44-1.79.71-3.62,1.02-5.44.32-1.87.31-1.87,2.27-1.89,2.4-.03,2.39-.03,2.08,2.26-.46,3.42-1.32,6.78-1.48,10.24-.02.4-.09.86-.58.92-1.19.13-2.86.6-3.48-.16-1.05-1.29-1.55-.41-2.31-.01-2.74,1.45-4.66.37-4.62-2.71.04-3.3,1.04-6.49,1.46-9.75.07-.58.51-.77,1.04-.77,1.03,0,2.07,0,3.37,0Z"/>
      <path class="cls-1" d="m360.42,554.69c.14,0,.38.02.62.04,4.35.32,4.31.32,3.68,4.65-.38,2.62-1.07,5.2-1.07,7.87,0,.95-.48,1.41-1.33,1.2-1.06-.26-2.68.98-3.13-1.12-.07-.32-.54-.09-.76.13-1.08,1.09-2.3,1.89-3.85,1.08-1.52-.8-1.89-2.29-2-3.88-.11-1.7.02-3.37.59-4.99,1.18-3.31,3.65-5.04,7.26-4.98Zm-3.51,7.84c.03.81-.17,1.7.69,1.98.99.33,1.42-.48,1.74-1.24.53-1.26.88-2.58.96-3.94.06-.94-.54-1.3-1.35-.82-1.55.93-1.83,2.52-2.04,4.02Z"/>
      <path class="cls-3" d="m168.41,566.53c-1.39,1.16-2.08,1.84-3.02,2.16-2.15.73-3.88-.46-3.83-2.74.04-2.07.3-4.13.8-6.15.31-1.23.05-2.5.55-3.75.34-.84.69-1.17,1.52-1.11.16.01.32,0,.48,0,2.82-.07,2.87.05,2.28,2.72-.39,1.78-.58,3.61-.84,5.42-.05.37-.13.85.45.93.4.06.82.08,1.12-.27.49-.56.77-1.22.89-1.94.31-1.8.73-3.6.87-5.41.09-1.24.65-1.49,1.68-1.45.95.03,1.9,0,3.05,0-.46,2.97-.9,5.69-1.3,8.42-.2,1.35-.36,2.71-.45,4.06-.05.81-.39,1.15-1.18,1.12-.64-.02-1.29-.04-1.93,0-1.05.07-1.78-.16-1.15-2.02Z"/>
      <path class="cls-1" d="m424.2,557.23c1.16.4,2.29.15,3.4.21.7.04,1.05.29.89,1.04-.1.47-.14.95-.22,1.43q-.35,2.06-2.41,2.1-2.45.06-2.82,2.47c-.13.87-.38,1.74-.42,2.61-.06,1.2-.72,1.38-1.75,1.41-2.88.07-2.99-.05-2.51-2.91.78-4.59,1.54-9.18,2.3-13.77.36-2.19.35-2.2,2.54-2.22,1.85-.01,3.7-.03,5.54,0,1.52.03,1.6.17,1.37,1.73-.02.16-.08.31-.11.47q-.41,2.17-2.52,2.2c-.16,0-.32,0-.48,0q-1.98.02-2.59,1.92c-.12.37-.47.67-.23,1.29Z"/>
      <path class="cls-3" d="m270.62,560.67c-1.86,1.9-4.21,2.78-7.1,2.94,1.61,2.56,3.48.88,5.09.94.27,2.86.11,3.26-1.55,3.87-2.74,1-5.27.52-6.6-1.26-2.6-3.47-.53-10.65,3.52-12.19,3.87-1.47,6.83.78,6.4,4.89-.03.33-.08.62.22.84,0,0,.03-.03.03-.03Zm-6.6-.4c1.23.09,2.02-.14,2.22-1.34.04-.27-.11-.5-.33-.55-1.13-.25-1.56.46-1.8,1.39-.02.08-.03.16-.08.51Z"/>
      <path class="cls-1" d="m483.3,564.8c-.12.33-.28.55-.26.76.15,1.96-.82,2.91-2.7,3.17-2.09.29-4.02.2-5.43-1.67-.65-.86-.97-1.85-1.07-2.9-.21-2.31.25-4.49,1.49-6.46,1.42-2.25,3.5-3.24,6.15-2.91,1.82.22,2.89,1.16,3.26,2.73.46,1.98-.13,3.7-1.61,4.69-1.18.79-2.53.95-3.9,1.09-.46.05-1.04.06-1.06.71-.01.57.49.81.94.95.78.23,1.6.22,2.37-.05.53-.19,1.01-.48,1.82-.11Zm-2.48-5.96c0-.44-.19-.78-.62-.87-.7-.14-1.73,1.04-1.69,1.92.02.32.16.58.57.56.87-.04,1.7-.79,1.74-1.61Z"/>
      <path class="cls-1" d="m449.54,550.78c.43.63.11,1.18-.01,1.68-.58,2.27-.6,2.27,1.69,2.7.47.56-.28.97-.2,1.52.18,1.3.09,2.48-1.74,2.35-.45-.03-.72.33-.83.74-.38,1.39-.61,2.81-.64,4.25,0,.34.24.94.68.78,1.02-.36,1.15.22,1.08.93-.1.98.3,2.14-.95,2.75-2.79,1.37-5.28-.11-5.35-3.19-.04-1.46.38-2.86.53-4.29.08-.75.28-1.45-.55-2.14-.85-.7-.48-3.38.54-3.75,1-.36,1.21-.99,1.28-1.75.1-1.15.67-1.7,1.77-1.91.92-.17,1.78-.66,2.71-.68Z"/>
      <path class="cls-1" d="m485.62,564.62c.83.24,1.66.51,2.5.73.66.17,1.39.13,1.69-.54.38-.82-.39-1.11-.95-1.36-1.92-.85-2.79-2.29-2.65-4.38.15-2.2,1.44-3.72,3.62-4.18.87-.18,1.74-.19,2.63-.08,2.29.28,2.3.28,1.96,2.47q-.23,1.45-1.8,1.15c-.31-.06-.63-.14-.94-.16-.4-.02-.83,0-1.01.45-.18.43,0,.77.37,1.02.27.18.54.35.82.5,1.93.98,2.44,2.61,2.16,4.63-.29,2.1-1.63,3.23-3.54,3.78-.6.17-1.26.19-1.9.2-3.79.04-4.08-.36-2.96-4.23Z"/>
      <path class="cls-3" d="m312.83,558.82c-.85-.19-1.55-.42-2.26-.49-.49-.04-1.18-.28-1.34.56-.12.65.36.78.82.96.3.12.56.31.84.46,3.22,1.64,2.49,6.42-.12,7.77-.79.41-1.61.73-2.5.79-1.45.09-3.11.3-4.16-.67-.85-.78-.01-2.27-.25-3.36.78-.63,1.29,0,1.87.13.7.17,1.36.52,2.11.37.4-.08.77-.24.84-.72.05-.36-.13-.65-.4-.82-.4-.26-.85-.45-1.27-.68-1.68-.96-2.2-2.48-1.99-4.29.24-2.03,1.5-3.47,3.38-3.93.46-.11.95-.14,1.43-.16,3.26-.12,3.96.79,3,4.08Z"/>
      <path class="cls-1" d="m470.95,556.19c.27-.15.36-.17.41-.23.67-.72,1.46-1.56,2.45-.98.92.54.26,1.6.19,2.42-.12,1.3-.36,2.41-2.21,2.34-1.16-.05-1.65,1.18-1.89,2.21-.38,1.63-.73,3.28-.92,4.94-.14,1.19-.6,1.73-1.81,1.59-.39-.05-.8,0-1.2-.01-1.51-.07-1.62-.15-1.38-1.73.53-3.47,1.18-6.93,1.68-10.41.17-1.15.71-1.52,1.75-1.37,1.06.15,2.5-.6,2.94,1.22Z"/>
      <path class="cls-3" d="m249.72,568.37c.16-3.07.77-5.92,1.27-8.79.21-1.18.48-2.35.62-3.54.09-.8.42-1.14,1.22-1.11.8.03,1.61.04,2.41,0,.84-.04.78.63.96,1.14.6.08.71-.5,1.04-.76.61-.5,1.34-.8,2-.44.81.45.25,1.3.19,1.95-.04.45-.38.85-.33,1.37.11,1.1-.34,1.46-1.51,1.48-1.46.04-2.59,1.65-2.85,3.63-.05.39.06.81,0,1.2-.82,4.78.1,4.14-4.99,3.86Z"/>
      <path class="cls-3" d="m312.91,571.58c.16-2.06,1.27-3.66,1.73-5.48.19-.76.83-1.32,1.81-1.2.86.11,1.75-.14,2.72.22-.57,2.06-1.64,3.9-2.44,5.86-.24.58-.69.83-1.32.78-.78-.07-1.58.14-2.49-.18Z"/>
      <path class="cls-2" d="m179.04,554.05c-1.4,0-2.39-.99-2.43-2.43-.04-1.57,1.14-2.84,2.63-2.85,1.36,0,2.4,1.04,2.43,2.45.04,1.57-1.12,2.82-2.64,2.83Z"/>
      <path class="cls-2" d="m198.53,554.04c-1.33-.14-2.25-1.3-2.13-2.71.13-1.56,1.45-2.71,2.92-2.55,1.32.15,2.24,1.33,2.12,2.73-.13,1.6-1.37,2.68-2.91,2.53Z"/>
      <path class="cls-1" d="m383.13,553.99c-1.39.02-2.38-.97-2.4-2.4-.02-1.49,1.01-2.61,2.47-2.67,1.46-.06,2.47.83,2.54,2.25.07,1.51-1.11,2.81-2.6,2.83Z"/>
      <path class="cls-1" d="m401.97,125.12c0,.18,0,.36-.02.53-.48-.09-.81-.4-1.07-.8.45-.19.74.14,1.09.27Z"/>
      <path class="cls-1" d="m264.8,68.39c.15-.02.29.02.41.12-.02.46-.05.91-.07,1.47-.38-.54-.51-1.03-.34-1.58Z"/>
      <path class="cls-3" d="m294.93,17.6c.14-.07.27-.17.42-.21.25-.05.51-.47.75-.04.03.05-.31.32-.5.46-.12.08-.29.09-.44.12-.19-.04-.26-.15-.23-.34Z"/>
      <path class="cls-1" d="m388.88,209.68c.19.07.24.18.17.33-.26.27-.57.27-.68-.07-.06-.18.27-.29.5-.26Z"/>
      <path class="cls-3" d="m295.24,51.78c.23.04.47.05.69.12.17.06.31.2.47.3-.21,0-.43.04-.64,0-.23-.04-.47-.12-.53-.4,0,0,0-.02,0-.02Z"/>
      <path class="cls-1" d="m411.41,99.05c.36-.02.76.32.68.46-.29.48-.59-.07-.89-.12-.04-.18.02-.3.21-.34Z"/>
      <path class="cls-1" d="m290.05,556.72s-.03-.08-.03-.08c0,0,.03.08.03.08Z"/>
      <polygon class="cls-1" points="89.84 422.96 90.02 422.92 89.99 423.05 89.84 422.96"/>
      <polygon class="cls-2" points="314.46 413.56 314.54 413.62 314.47 413.59 314.46 413.56"/>
      <path class="cls-1" d="m419.15,413.53c-.05.08-.1.15-.15.23,0-.04,0-.09.02-.11.04-.04.11-.06.16-.09,0,0-.04-.03-.04-.03Z"/>
      <path class="cls-1" d="m170.68,386.57c-.11-.05-.21-.11-.32-.16.06-.07.12-.14.19-.22.06.11.12.22.18.34,0,0-.04.04-.04.04Z"/>
      <path class="cls-1" d="m207.07,556.72s-.03-.08-.03-.08.03.08.03.08Z"/>
      <path class="cls-1" d="m170.72,386.53c.12.09.24.17.35.26-.09.07-.17.13-.26.2-.05-.14-.09-.28-.14-.42,0,0,.04-.04.04-.04Z"/>
    </g>
  </g>
</svg>