<?xml version="1.0" encoding="UTF-8"?>
<svg id="Layer_2" data-name="Layer 2" xmlns="http://www.w3.org/2000/svg" viewBox="0 0 809.19 318.08">
  <g id="Layer_1-2" data-name="Layer 1">
    <g>
      <path d="m126.24,159.9c8.82,0,16.92-.15,25.01.18,1.07.04,2.49,2.32,3.01,3.82,7.88,22.93,15.64,45.9,23.43,68.87.53,1.56,1.11,3.09,2.09,5.84,1.8-5.1,3.28-9.14,4.67-13.21,6.89-20.29,13.83-40.56,20.55-60.91,1.1-3.34,2.49-4.86,6.23-4.69,7.1.32,14.23.09,22.16.09-17.86,52.73-35.47,104.72-53.57,158.19-18.08-53.38-35.69-105.36-53.58-158.17Z"/>
      <path d="m63.47,193.51c0-10.41-.11-19.99.13-29.57.03-1.28,1.53-2.83,2.73-3.73,61.56-45.72,123.17-91.38,184.78-137.04,1.04-.77,2.18-1.42,4.12-2.67,0,10.41.11,20.11-.13,29.8-.03,1.25-1.68,2.71-2.91,3.63-43.79,32.54-87.62,65.02-131.45,97.51-17.77,13.17-35.55,26.33-53.34,39.49-1.02.75-2.11,1.39-3.92,2.58Z"/>
      <path d="m109.4,118.5C72.72,99.28,36.87,80.49,0,61.17,36.73,40.63,72.59,20.58,109.38,0c0,9.72.14,18.73-.17,27.73-.04,1.21-2.22,2.63-3.68,3.46-15.48,8.75-31.03,17.4-46.54,26.1-1.54.86-3.02,1.85-5.34,3.29,8.6,4.52,16.46,8.67,24.33,12.8,9.42,4.95,18.9,9.78,28.19,14.94,1.49.82,3.02,3.06,3.08,4.7.31,8.13.14,16.29.14,25.49Z"/>
      <path d="m310.38,73.71c.58-.29.72-.42.88-.43q9.64-.75,12.2,8.59c5.66,20.82,11.31,41.65,17.35,63.94,1.01-2.9,1.68-4.57,2.18-6.3,6.05-20.9,12.22-41.76,17.97-62.74,1.11-4.04,3.45-3.67,6.28-3.68,2.84,0,5.15-.28,6.25,3.72,5.67,20.66,11.77,41.21,17.73,61.79.59,2.03,1.26,4.03,2.33,7.43,6.84-25.11,13.28-48.76,19.78-72.64h10.91c-2.75,9.8-5.4,19.34-8.11,28.87-5.03,17.74-10.26,35.42-15.03,53.22-1.17,4.35-3.58,4.7-7.19,4.64-3.48-.06-5.96,0-7.21-4.55-5.55-20.18-11.63-40.21-17.53-60.3-.46-1.55-1.01-3.07-1.93-5.85-.93,2.68-1.56,4.26-2.03,5.88-5.9,20.08-11.92,40.13-17.54,60.29-1.13,4.04-3.12,4.77-6.7,4.54-3.28-.22-6.14.44-7.43-4.28-7.35-26.75-15.11-53.38-22.73-80.05-.18-.62-.26-1.28-.42-2.1Z"/>
      <path d="m509.82,150.63v9.08h-9.3v-89.24h9.6v34.31c6.56-7.07,13.35-10.79,21.75-11.01,17.91-.47,30.09,11.48,31.88,31.28,1.96,21.67-13.88,38.05-34.97,36.14-7.3-.66-13.04-4.38-18.95-10.56Zm21.7-47.56c-8.26.14-14.6,3.86-18.43,11.29-4.11,7.96-4.26,16.3-.98,24.59,3.56,8.97,11.08,13.77,20.63,13.44,8.71-.3,16.39-6.17,19.2-14.89,2.44-7.57,2.17-15.12-1.28-22.32-3.78-7.9-10.14-12.05-19.16-12.1Z"/>
      <path d="m479.76,142.68c1.93,1.44,3.89,2.91,6.13,4.58-4.63,7.81-11.32,11.83-19.64,13.55-17.74,3.67-34.98-6.41-38.96-22.78-4.82-19.84,4.28-38.08,21.49-43.04,22.09-6.37,41.92,10.98,38.77,34.81h-51.21c.59,9.77,4.18,16.76,12.66,20.57,10.24,4.61,19.2,2.34,30.76-7.69Zm-2.19-20.63c-1.42-13.09-10.48-20.85-22.16-19.54-10.38,1.17-18.72,10.28-17.78,19.54h39.94Z"/>
      <path d="m572.92,142.43c2.67-1,5.39-2.03,8.04-3.03,6.43,11.07,14.55,14.9,24.32,11.74,7.29-2.36,12.44-9.57,11.45-17.34-2.03-16.06-14.55-15.69-26.51-15.85-.86-4.7-.6-8.47,2.74-12.18,6.53-7.25,12.52-14.99,19.32-23.24h-36.4v-9.02h47.87c.82,5.22.64,9.78-3.49,14.09-6.19,6.46-11.72,13.56-18.07,21.01,9.54,1.5,17.45,4.69,22.09,13.11,3.22,5.85,3.5,12.18,2.49,18.46-1.96,12.16-12.88,20.82-26.04,21.2-14.46.41-24.81-6.5-27.82-18.96Z"/>
      <path d="m314.48,238.92v-48.2c11.75,0,23.94-1.55,31.58,10,5.78,8.73,5.73,18.61.56,27.45-7.18,12.26-19.72,10.85-32.14,10.76Zm5.31-5.2c9,.71,16.95.06,21.64-7.89,4.15-7.02,4.04-14.68.04-21.84-3.76-6.74-10.32-8.16-17.47-8.32-3.23-.07-4.41.95-4.32,4.23.19,7.45.09,14.92.11,22.37,0,3.75,0,7.5,0,11.45Z"/>
      <path d="m744.96,189.28h5.51v18.46c5.91-5.35,12.01-7.46,18.42-4.65,3.29,1.44,6.56,4.15,8.53,7.14,5.12,7.79,3.19,20-3.38,25.68-6.64,5.74-14.96,5.38-22.95-1.27-.31.8-.6,1.45-.8,2.13-.18.62-.27,1.26-.41,1.96h-4.92v-49.44Zm29.81,31.7c.01-7.98-4.95-13.87-11.77-13.99-7.61-.13-12.74,5.58-12.63,14.09.1,8.18,5.39,14.06,12.47,13.87,6.85-.18,11.92-6.11,11.93-13.97Z"/>
      <path d="m527.09,251.49v-49.77c2.69,1.86,4.38,3.03,6.47,4.47,8.48-5.8,17.39-5.74,23.51.91,6.28,6.83,6.63,19.78.72,26.81-6.23,7.41-14.72,7.8-25.58.67,0,4.65-.15,8.87.05,13.07.17,3.49-.89,5.12-5.17,3.83Zm29.36-30.57c.02-8.21-5.09-13.97-12.32-13.9-6.93.07-11.99,5.79-12.09,13.68-.1,8.05,5.04,14.09,12.12,14.24,6.97.14,12.27-5.91,12.29-14.02Z"/>
      <path d="m600.76,222.11h-28.27c-.15,5.51,1.9,9.48,6.48,11.59,6.48,2.98,12.3,1.41,17.1-3.72,3.84,2.3,3.92,2.79,1,5.48-5.37,4.94-14.72,5.83-21.41,2.05-6.98-3.95-10.35-12.37-8.46-21.14,2.11-9.81,9.85-15.42,19.63-14.22,8.87,1.08,14.34,8.62,13.93,19.96Zm-5.9-4.17c.04-6.77-4.08-11.16-10.48-11.32-6.33-.15-11.06,4.51-11.28,11.32h21.75Z"/>
      <path d="m462.64,222.15h-28.38c.11,5.45,2.05,9.43,6.72,11.58,5.26,2.41,10.33,1.83,14.95-1.81,2.65-2.09,2.66-2.07,5.15.44-4.6,7.34-14.13,9.68-22.78,5.59-7.92-3.75-11.61-13.86-8.64-23.65,2.69-8.87,11.02-13.83,20.19-12.02,8.37,1.65,13.33,9.07,12.78,19.87Zm-5.81-4.26c-.02-6.6-3.73-10.7-9.99-11.14-6.46-.46-11.02,3.65-12.11,11.14h22.1Z"/>
      <path d="m388.89,222.14h-27.76c-.26,5.49,1.64,9.31,6.12,11.49,5.24,2.55,10.47,2.09,14.97-1.61,2.4-1.97,4.01-2.77,5.68.44-6.04,7.83-16.17,9.76-24.4,4.66-7.87-4.86-10.66-15.99-6.33-25.24,3.84-8.22,12.57-11.89,21.31-8.96,7.44,2.49,11.5,9.73,10.42,19.21Zm-5.18-4.14c-1.14-7.9-5.53-11.84-12.1-11.29-5.9.49-9.98,5.05-9.97,11.29h22.07Z"/>
      <path d="m683.59,230.04c2.63,3.29,1.62,5.14-1.52,6.82-10.64,5.68-23.86,3.17-31.1-6.05-7.41-9.44-6.93-24.15,1.1-33.18,8.05-9.07,21.06-10.43,32.53-3.12-.37,1.37-.78,2.86-1.33,4.89-6.02-3.66-12.21-6.11-18.63-3.41-3.64,1.53-7.33,4.16-9.68,7.29-5.61,7.45-4.41,19.39,1.82,25.83,6.58,6.81,15.95,7.21,26.82.95Z"/>
      <path d="m501.22,202.01c10.8.07,18.87,8.35,18.65,19.17-.21,10.55-8.4,18.75-18.76,18.78-10.69.02-18.93-8.31-18.87-19.09.06-10.93,8.1-18.92,18.97-18.85Zm-13.32,18.79c-.07,8.1,5.26,13.95,12.88,14.15,7.54.19,13.27-5.63,13.43-13.61.16-8.34-5.35-14.35-13.14-14.33-7.69.02-13.1,5.68-13.17,13.8Z"/>
      <path d="m730.28,203.23h5.29v36.55c-2.58-1.23-4.52-2.16-6.99-3.34-3.06,2.62-7.38,4.59-12.76,2.85-5.97-1.93-8.3-6.59-8.58-12.16-.39-7.76-.1-15.56-.1-23.77,1.81-.12,3.37-.23,5.57-.37,0,7.32-.02,14.24,0,21.17.03,6.87,3.03,10.75,8.29,10.78,5.51.04,9.13-4.02,9.26-10.72.13-6.79.03-13.58.03-20.98Z"/>
      <path d="m784.99,232.41c1-.75,2.02-1.53,3.05-2.3-.08.44-.17.87-.25,1.31,3.52,1.26,6.98,3.13,10.59,3.49,1.63.16,4.46-2.37,5.07-4.23.49-1.5-1.08-4.36-2.57-5.64-1.93-1.67-4.66-2.43-7.1-3.47-4.42-1.89-7.79-4.74-7.78-9.89,0-3.93,1.97-7.06,5.79-8.52,4.95-1.9,9.77-1.78,14.02,1.83.98.83,1.66,2.02,2.67,3.28-1.81,2.05-3.13,3.11-5.59.69-1.4-1.37-3.91-2.65-5.66-2.36-2.07.34-4.73,2.04-5.48,3.84-.54,1.29,1.18,4.35,2.73,5.48,2.63,1.91,5.96,2.81,8.92,4.31,4.1,2.07,6.24,5.37,5.7,10.08-.56,4.87-3.45,7.72-8.07,8.97-6.86,1.85-12.49-.5-16.05-6.85Z"/>
      <path d="m425.43,203.73c-4.26,11.16-8.32,22.02-12.64,32.79-.45,1.13-2.44,2.38-3.63,2.3-1.44-.1-3.55-1.25-4.06-2.49-4.38-10.75-8.47-21.62-12.71-32.63,3.91-1.55,5.82-.63,7.12,3.31,2.7,8.18,5.95,16.17,9.48,25.57,2.47-6.75,4.54-12.4,6.61-18.04.92-2.5,2-4.94,2.73-7.49,1.01-3.51,2.87-5.07,7.09-3.32Z"/>
      <path d="m693.2,189.02c1.83.09,3.28.16,5.18.26,0,11.07,0,21.86,0,32.66,0,4.16-.15,8.33.09,12.48.21,3.79-1.11,5.36-5.27,4.23v-49.63Z"/>
      <path d="m613.5,238.69h-5.32v-35.32c2.84-.51,5.71-1.45,5.47,2.86,3.07-1.59,6.17-3.19,9.95-5.15.17,2.65.27,4.08.36,5.44-8.77,3.61-10.38,5.98-10.44,15.36-.04,5.46,0,10.92,0,16.81Z"/>
      <path d="m470.13,238.95v-49.61c1.59-.11,2.99-.21,4.79-.33v49.63c-1.42.09-2.81.18-4.79.31Z"/>
    </g>
  </g>
</svg>