<?xml version="1.0" encoding="UTF-8"?>
<svg id="Layer_2" data-name="Layer 2" xmlns="http://www.w3.org/2000/svg" viewBox="0 0 458.79 142.88">
  <defs>
    <style>
      .cls-1 {
        fill: #b36e5c;
      }

      .cls-2 {
        fill: #0a3224;
      }
    </style>
  </defs>
  <g id="Layer_1-2" data-name="Layer 1">
    <g>
      <path class="cls-1" d="m20.88,63.5c4.91,0,9.83-.13,14.74.05,2.5.09,4.3-.77,6.02-2.46,7.13-7.03,14.33-14,21.51-20.97,3.1-3.01,4.21-3.12,7.34-.08,7.05,6.84,14.02,13.76,20.94,20.74,1.93,1.95,4,2.81,6.77,2.8,10.11-.06,20.22.09,30.33.16,3.86.03,5.07,1.25,5.09,5.08,0,1.04.03,2.08,0,3.12-.12,3.18-1.57,4.63-4.77,4.64-7.18.03-14.38.27-21.54-.11-4.29-.23-7.38,1.28-10.24,4.17-6.38,6.45-12.86,12.79-19.31,19.18-2.28,2.26-4.53,4.55-6.85,6.78-3.79,3.65-4.8,3.64-8.63-.14-8.4-8.3-16.84-16.57-25.12-24.99-3.38-3.44-6.76-5.58-12.03-5.07-6.65.64-13.4.17-20.11.15-3.43-.01-4.75-1.35-4.87-4.78-.25-7.71.02-8.01,7.68-8.04,4.35-.02,8.69,0,13.04,0,0-.08,0-.15,0-.23Zm45.68-8.27c-.79.61-1.5,1.04-2.07,1.61-4.61,4.61-9.2,9.25-13.79,13.88-2.29,2.31-2.36,3.32-.05,5.65,4.61,4.62,9.34,9.11,13.92,13.75,1.63,1.64,2.91,1.25,4.31-.14,4.63-4.59,9.28-9.17,13.9-13.77.4-.39.69-.9,1.04-1.34,1.06-1.33.92-2.48-.31-3.67-5.02-4.87-9.98-9.8-14.99-14.68-.5-.49-1.19-.78-1.97-1.29Z"/>
      <path class="cls-1" d="m132.5,91.99c-.02-4.44-1.14-5.47-5.58-5.45-6.33.02-12.67.1-19-.03-2.88-.06-4.95,1.01-6.96,3.02-10.71,10.68-21.52,21.26-32.33,31.83-.95.94-1.67,1.52-2.33,1.75-.66-.23-1.37-.81-2.33-1.75-10.81-10.58-21.61-21.15-32.33-31.83-2.01-2.01-4.08-3.08-6.96-3.02-6.33.14-12.67.06-19,.03-4.44-.02-5.56,1.01-5.58,5.45C.05,107.12.02,122.25,0,137.38c0,4.3,1.04,5.39,5.36,5.42,6.33.06,12.68-.18,19,.07,3.48.14,5.86-1.24,8.14-3.6,4.28-4.41,8.73-8.65,13.07-12.99,1.6-1.59,2.8-1.57,4.44.2,4.05,4.36,8.32,8.52,12.53,12.73,1.37,1.37,2.58,2.13,3.76,2.3,1.19-.17,2.39-.94,3.76-2.3,4.21-4.21,8.48-8.37,12.53-12.73,1.64-1.77,2.84-1.8,4.44-.2,4.35,4.34,8.8,8.59,13.07,12.99,2.28,2.35,4.66,3.74,8.14,3.6,6.32-.25,12.67-.01,19-.07,4.32-.03,5.37-1.12,5.36-5.42-.02-15.13-.05-30.26-.11-45.38Zm-109.01,36.75c-1.22,1.13-8.57,1.25-9.76.15-.46-.43-.71-1.29-.72-1.96-.09-8.02-.12-16.04-.14-24.05,0-2.25.96-3.15,3.43-3.38,4.62-.43,8.06.94,11.14,4.47,3.26,3.76,7.08,7.02,10.88,10.74-5.12,4.86-9.95,9.48-14.83,14.03Zm96.11-1.8c0,.66-.26,1.53-.72,1.96-1.19,1.1-8.54.98-9.76-.15-4.89-4.56-9.71-9.18-14.83-14.03,3.81-3.71,7.62-6.98,10.88-10.74,3.08-3.54,6.51-4.9,11.14-4.47,2.46.23,3.43,1.13,3.43,3.38-.02,8.02-.05,16.04-.14,24.05Z"/>
      <path class="cls-1" d="m132.66,5.75c0-4.3-1.04-5.39-5.36-5.42-6.33-.06-12.68.18-19-.07-3.48-.14-5.86,1.24-8.14,3.6-4.28,4.41-8.73,8.65-13.07,12.99-1.6,1.59-2.8,1.57-4.44-.2-4.05-4.36-8.32-8.52-12.53-12.73-1.37-1.37-2.58-2.13-3.76-2.3-1.19.17-2.39.94-3.76,2.3-4.21,4.21-8.48,8.37-12.53,12.73-1.64,1.77-2.84,1.8-4.44.2-4.35-4.34-8.8-8.59-13.07-12.99C30.27,1.51,27.89.12,24.41.26c-6.32.25-12.67.01-19,.07C1.09.37.05,1.45.05,5.75c.02,15.13.05,30.26.11,45.38.02,4.44,1.14,5.47,5.58,5.45,6.33-.02,12.67-.1,19,.03,2.88.06,4.95-1.01,6.96-3.02,10.71-10.68,21.52-21.26,32.33-31.83.95-.94,1.67-1.52,2.33-1.75.66.23,1.37.81,2.33,1.75,10.81,10.58,21.61,21.15,32.33,31.83,2.01,2.01,4.08,3.08,6.96,3.02,6.33-.14,12.67-.06,19-.03,4.44.02,5.56-1.01,5.58-5.45.06-15.13.09-30.26.11-45.38ZM38.38,28.42c-3.81,3.71-7.62,6.98-10.88,10.74-3.08,3.54-6.51,4.9-11.14,4.47-2.46-.23-3.43-1.13-3.43-3.38.02-8.02.05-16.04.14-24.05,0-.66.26-1.53.72-1.96,1.19-1.1,8.54-.98,9.76.15,4.89,4.56,9.71,9.18,14.83,14.03Zm81.41,11.83c0,2.25-.96,3.15-3.43,3.38-4.62.43-8.06-.94-11.14-4.47-3.26-3.76-7.08-7.02-10.88-10.74,5.12-4.86,9.95-9.48,14.83-14.03,1.22-1.13,8.57-1.25,9.76-.15.46.43.71,1.29.72,1.96.09,8.02.12,16.04.14,24.05Z"/>
    </g>
    <path class="cls-2" d="m187.1,76.2c-4.6,5.09-10.75,9.22-18.04,11.7-7.93,2.7-16.1,2.53-24.26,2.19-3.13-.13-4.05-2.62-4.04-5.57.05-11.4.02-22.8.02-34.2,0-14.52,0-29.04,0-43.56,0-5.44,1.18-6.61,6.63-6.62,3.44,0,6.88-.03,10.32,0,4.38.02,5.68,1.34,5.69,5.83.03,18.39.03,36.78.04,55.17,0,1.17,0,2.34,0,4.35,1.91-1.16,3.44-1.83,4.65-2.87,5.4-4.65,8.48-10.49,8.5-17.73.04-13.01.01-26.03.03-39.04,0-4.41,1.35-5.7,5.8-5.71,3.87,0,7.74-.06,11.61.01,3.46.06,4.9,1.66,4.91,5.31.02,12.58-.09,25.17.05,37.75.09,8.2,2.38,15.51,9.6,20.42.87.59,1.82,1.08,3.27,1.93.09-1.58.2-2.69.2-3.8.03-18.61.03-37.21.05-55.82,0-4.37,1.4-5.78,5.75-5.8,3.98-.02,7.96-.05,11.94.03,3.01.06,4.64,1.58,4.66,4.54.09,12.04.08,24.07.11,36.11.04,13.97-.02,27.95.15,41.92.08,6.21-.9,7.43-7.02,7.51-8.19.11-16.53.5-24-3.44-5.63-2.96-10.78-6.83-16.65-10.62Z"/>
    <path class="cls-2" d="m377.4,44.21c4.24,3.77,7.39,8.03,8.65,13.46,3.84,16.61-7.73,31.8-25.18,32.35-13.75.44-27.52.14-41.28.11-3.16,0-4.73-1.63-4.74-4.81-.05-26.88-.06-53.76-.09-80.64,0-2.89,1.53-4.48,4.34-4.49,14.51-.05,29.05-.5,43.54.16,10.67.49,18.43,6.5,22.07,16.66,3.55,9.9,1.52,18.84-6.39,26.15-.23.22-.42.48-.92,1.05Zm-27.93,11.87h0c-1.18-.01-2.37-.01-3.55-.01q-9.09-.01-8.47,9.11c0,.11-.04.26.02.32.77.78,1.53,2.21,2.32,2.23,6.23.17,12.47.21,18.7,0,3.47-.11,5.82-2.75,5.76-5.78-.06-3.29-2.46-5.69-6.07-5.84-2.9-.12-5.8-.02-8.71-.02Zm-.82-22.38c1.51,0,3.01,0,4.52,0,1.51,0,3.02.05,4.52-.04,3.73-.22,6.06-2.47,6.07-5.78.01-3.28-2.33-5.37-6.25-5.43-3.98-.06-7.96-.02-11.94-.01-8.85.01-8.82.01-8.17,8.82.13,1.75.74,2.52,2.54,2.47,2.9-.08,5.81-.02,8.71-.02Z"/>
    <path class="cls-2" d="m241.24,45.2c0-13.12-.02-26.23,0-39.35,0-4.23,1.42-5.67,5.55-5.68,18.92-.02,37.85-.03,56.77-.01,4.15,0,5.61,1.45,5.66,5.6.04,3.55.04,7.1,0,10.64-.05,4.35-1.74,6.03-6.06,6.03-11.83.01-23.66.1-35.48-.07-3.07-.05-3.82,1.02-3.78,3.88.11,7.47,0,7.47,7.56,7.47,7.85,0,15.7-.03,23.55-.02,3.77,0,5.13,1.29,5.18,4.94.05,4.19.06,8.39,0,12.58-.05,3.57-1.29,4.81-4.93,4.83-9.25.05-18.49.13-27.74-.02-2.87-.05-3.68.92-3.66,3.7.05,8.12-.06,8.12,8.2,8.13,10.43,0,20.86-.01,31.29,0,4.34,0,5.81,1.44,5.89,5.75.06,3.76.07,7.53.02,11.29-.04,3.31-1.87,5.24-5.17,5.24-19.25.04-38.49.05-57.74,0-3.5,0-5.07-1.82-5.07-5.61-.03-13.12-.01-26.23-.01-39.35-.01,0-.02,0-.03,0Z"/>
    <path d="m449.26,44.74c1.41,1.48,2.74,2.72,3.88,4.11,11.97,14.59,3.89,37.04-14.66,40.66-2.3.45-4.69.66-7.04.67-11.5.07-23.01.04-34.51.04-4.91,0-5.99-1.1-5.99-6.11,0-3.76-.05-7.53.01-11.29.06-3.72,1.37-4.96,5.13-4.96,10.43-.01,20.86,0,31.28-.01.97,0,1.94.06,2.9-.05,3.27-.38,5.31-2.7,5.22-5.86-.09-3.01-2.07-5.26-5.29-5.38-5.26-.19-10.53-.1-15.8-.12-4.91-.02-5.9-.99-5.92-5.8-.01-4.09-.04-8.17,0-12.26.03-3.69,1.1-4.72,4.85-4.8,5.79-.12,11.6-.05,17.38-.4,2.93-.18,4.6-2.5,4.57-5.28-.03-2.69-1.9-4.84-4.72-5.3-.84-.14-1.71-.11-2.57-.11-10.21,0-20.43-.01-30.64,0-5.37,0-6.33-.95-6.35-6.43-.01-3.76-.05-7.53,0-11.29.04-3.15,1.38-4.58,4.49-4.6,12.9-.06,25.81-.41,38.7.06,10.69.4,18.64,5.95,22.62,15.96,3.89,9.78,1.97,18.78-5.57,26.37-.66.66-1.26,1.38-1.96,2.16Z"/>
    <path d="m170.01,122.42c-1.58,2.87-3.12,5.77-4.75,8.61-2.31,4.02-6.11,4.02-8.44.02-.76-1.3-1.43-2.65-2.15-3.97-.71-1.31-1.43-2.6-2.89-3.84,0,4.3,0,8.61,0,12.91-.01,5.46-4.34,8.15-9.3,5.57-.96-.5-1.84-2.19-1.85-3.34-.13-12.15-.08-24.31-.09-36.46,0-2.51,1.23-3.63,3.7-3.9,5.97-.65,7.26-.05,10.07,5.14,2.09,3.86,4.18,7.71,6.5,11.98.75-1,1.31-1.58,1.68-2.26,1.75-3.21,3.47-6.44,5.16-9.68,2.71-5.2,4.73-6.19,10.55-5.25,2.26.36,3.4,1.46,3.41,3.85.07,11.83.25,23.65.31,35.48.02,4.12-1.23,5.08-6.02,5.04-4.29-.03-5.12-.85-5.13-5.04,0-4.9,0-9.8,0-14.69-.25-.06-.5-.12-.75-.18Z"/>
    <path d="m430.2,118.65c0-5.2-.03-10.41,0-15.61.03-4.36.93-5.19,5.36-5.16,4.67.03,5.49.8,5.5,5.35.03,11.06.02,22.12.07,33.18.01,2.43.17,4.83-2.86,5.72-3.2.93-6.71.05-8.39-2.33-3.72-5.26-7.35-10.58-11.03-15.87-.59-.85-1.22-1.67-2.32-3.19,0,6.03.01,11.24,0,16.46-.01,4.13-1.04,5.07-5.54,5.09-4.54.03-5.51-.77-5.54-5.04-.08-11.6-.06-23.2-.09-34.8,0-1.97.45-3.6,2.63-4.25,3.21-.96,7.13-.25,8.55,1.83,3.89,5.67,7.68,11.4,11.52,17.09.39.58.86,1.12,1.29,1.68l.83-.13Z"/>
    <path d="m334.53,121.9c0,5,0,10,0,15-.01,4.39-.99,5.32-5.62,5.35-4.56.04-5.5-.85-5.51-5.42-.04-11.08-.04-22.16-.07-33.24,0-2.18-.21-4.42,2.42-5.39,3.17-1.17,7.42-.22,9.05,2.17,3.95,5.77,7.82,11.59,11.72,17.38.29.43.63.84,1.28,1.69.2-1.08.42-1.71.42-2.34.05-4.95.14-9.9.04-14.84-.06-2.84,1.17-4.08,3.95-4.31,5.86-.49,6.82.33,6.87,6.12.08,10.75.19,21.51.28,32.26.02,2.3.1,4.62-2.62,5.65-2.95,1.12-7.14.18-8.76-2.11-3.66-5.18-7.24-10.42-10.87-15.63-.6-.85-1.27-1.66-1.9-2.48-.23.04-.46.09-.69.13Z"/>
    <path d="m265.85,120.4c0-5.91-.04-11.82.01-17.73.03-3.81,1.35-4.84,5.88-4.83,4.16,0,5.2.9,5.26,4.65.05,3.44.07,6.88.02,10.31-.02,1.62.58,2.44,2.26,2.27.21-.02.43,0,.64,0q9.01.2,9.04-8.76c0-.86,0-1.72,0-2.58,0-5.13.92-6.06,5.95-5.99,4.24.06,5.28,1.08,5.28,5.39.01,11.39,0,22.78-.02,34.16,0,4.08-1.08,5.01-5.61,5.02-4.46,0-5.58-.99-5.61-5.03-.02-3.12-.09-6.23,0-9.35.05-1.8-.75-2.6-2.45-2.59-2.47.01-4.96-.12-7.38.24-.8.12-1.93,1.56-2,2.46-.25,3.2-.08,6.44-.12,9.66-.04,3.41-.94,4.32-4.39,4.53-5.75.36-6.8-.63-6.8-6.38,0-5.16,0-10.31,0-15.47Z"/>
    <path d="m245.2,98.16c3.55,0,7.09-.06,10.64.02,3.74.08,4.46,1.15,4.37,6.17-.07,3.87-.68,4.53-4.49,4.55-4.73.02-9.46.08-14.19-.05-2.39-.07-2.89,1.09-2.86,3.16.03,2.02.46,3.28,2.87,3.19,3.43-.13,6.88-.08,10.32-.04,5.21.06,8.39,3.28,8.39,8.42,0,3.87.04,7.74-.02,11.61-.06,4.02-1.92,6.59-5.83,6.74-7.5.29-15.03.22-22.54,0-3.1-.1-4.31-2.37-4.1-6.11.16-2.92,1.55-4.18,4.53-4.11,4.83.12,9.67-.06,14.51.04,2.36.05,2.84-1.06,2.86-3.16.02-2.17-.6-3.16-2.9-3.1-3.54.09-7.1.07-10.64-.08-5.36-.21-7.83-2.78-7.89-8.06-.05-4.19-.09-8.38-.04-12.57.05-4.16,2.44-6.47,6.66-6.55,1.72-.03,3.44,0,5.16,0,1.72,0,3.44,0,5.16,0v-.07Z"/>
    <path d="m396.32,142.37c-2.93.53-4.91-1.05-5.59-4.28-.57-2.71-2.12-3.69-4.81-3.35-1.48.19-3.01.15-4.5.03-3.92-.33-7,.12-8.15,4.89-.67,2.77-7.95,3.98-9.75,1.68-.87-1.12-.9-3.47-.41-4.98,3.37-10.41,6.97-20.74,10.5-31.1,2.7-7.91,3.15-8.15,11.52-7.43,2.56.22,4.08,1.24,4.91,3.75,3.8,11.39,7.78,22.73,11.6,34.12,1.74,5.2.61,6.65-5.32,6.66Zm-9.92-17.71c-1.39-3.85-2.58-7.17-3.78-10.48-.22.03-.44.06-.66.09-1.07,3.37-2.13,6.75-3.28,10.4h7.72Z"/>
    <path d="m204.6,97.8c6.2-.01,6.35.08,8.46,6.08,3.8,10.84,7.62,21.67,11.36,32.53,1.52,4.41.51,5.79-4.01,5.91-5.53.14-5.73.07-7.65-5.2-.61-1.66-1.46-2.45-3.28-2.34-1.82.12-3.67.18-5.47-.02-4.02-.45-6.89.27-8.08,4.93-.78,3.03-8.31,3.92-10.28,1.43-.6-.76-.81-2.29-.5-3.23,4.17-12.41,8.47-24.78,12.72-37.17,1.19-3.47,4.13-2.79,6.74-2.91Zm.89,16.88l-.86-.03c-1.08,3.18-2.16,6.37-3.36,9.92h7.57c-1.18-3.5-2.27-6.7-3.35-9.9Z"/>
    <path d="m306.4,120.03c0-5.91-.04-11.81.02-17.72.03-3.5,1.15-4.39,5.18-4.41,4.55-.03,5.83.83,5.86,4.43.09,11.81.11,23.63.08,35.44,0,3.61-1.36,4.57-5.82,4.51-4.36-.06-5.29-.81-5.31-4.54-.03-5.91,0-11.81,0-17.72Z"/>
    <path d="m447.08,119.74c0-5.7.09-11.4-.04-17.09-.07-3.1,1.08-4.46,4.28-4.59,6.17-.26,6.99.36,6.99,6.43-.01,10.75.06,21.5-.13,32.25-.03,1.7-.93,4.53-1.99,4.83-2.42.67-5.23.34-7.78-.15-.66-.13-1.26-2.35-1.29-3.62-.13-6.02-.06-12.04-.06-18.06h.02Z"/>
  </g>
</svg>